<svg xmlns="http://www.w3.org/2000/svg" width="64" height="64" viewBox="0 0 64 64" fill="none">
  <defs>
    <linearGradient id="terminal-body" x1="12" y1="10" x2="55" y2="56" gradientUnits="userSpaceOnUse">
      <stop stop-color="#12314B" />
      <stop offset="1" stop-color="#091722" />
    </linearGradient>
    <linearGradient id="terminal-top" x1="12" y1="10" x2="52" y2="22" gradientUnits="userSpaceOnUse">
      <stop stop-color="#DDEAF4" />
      <stop offset="1" stop-color="#A9C0D4" />
    </linearGradient>
    <linearGradient id="prompt" x1="22" y1="28" x2="32" y2="38" gradientUnits="userSpaceOnUse">
      <stop stop-color="#F5B66D" />
      <stop offset="1" stop-color="#CC7A2F" />
    </linearGradient>
    <filter id="shadow" x="6" y="8" width="52" height="50" color-interpolation-filters="sRGB" filterUnits="userSpaceOnUse">
      <feFlood flood-opacity="0" result="BackgroundImageFix" />
      <feColorMatrix in="SourceAlpha" values="0 0 0 0 0 0 0 0 0 0 0 0 0 0 0 0 0 0 127 0" result="hardAlpha" />
      <feOffset dy="3" />
      <feGaussianBlur stdDeviation="3" />
      <feComposite in2="hardAlpha" operator="out" />
      <feColorMatrix values="0 0 0 0 0.0196078 0 0 0 0 0.0823529 0 0 0 0 0.145098 0 0 0 0.3 0" />
      <feBlend in2="BackgroundImageFix" result="effect1_dropShadow_1_1" />
      <feBlend in="SourceGraphic" in2="effect1_dropShadow_1_1" result="shape" />
    </filter>
  </defs>
  <rect width="64" height="64" rx="18" fill="#EEF3F7" />
  <circle cx="50" cy="14" r="10" fill="#DCEAF4" opacity=".7" />
  <circle cx="14" cy="52" r="12" fill="#EBC8A2" opacity=".35" />
  <g filter="url(#shadow)">
    <rect x="12" y="12" width="40" height="40" rx="10" fill="url(#terminal-body)" />
    <path d="M12 22C12 16.477 16.477 12 22 12H42C47.523 12 52 16.477 52 22V24H12V22Z" fill="url(#terminal-top)" />
    <circle cx="19" cy="18" r="2" fill="#CC7A2F" />
    <circle cx="25" cy="18" r="2" fill="#74A8CC" />
    <circle cx="31" cy="18" r="2" fill="#6DB599" />
    <path d="M23 30L29 35L23 40" stroke="url(#prompt)" stroke-linecap="round" stroke-linejoin="round" stroke-width="4" />
    <rect x="33" y="38" width="10" height="4" rx="2" fill="#74A8CC" />
    <path d="M34 30H42" stroke="#D7E7F4" stroke-linecap="round" stroke-width="4" />
  </g>
</svg>
